# xmcd
#
# Track frame offsets:
#	150
#	17923
#	33012
#	48162
#	60790
#	76640
#	90336
#	103762
#	119561
#	139595
#	155799
#	171534
#	189283
#
# Disc length: 2792 seconds
# Revision: 0
# Processed by: cddbd v1.5.1PL0 Copyright (c) Steve Scherf et al.
# Submitted via: cdrLabel 7.1
#
DISCID=980ae60d
DTITLE=B.B. King - Reflections
DYEAR=2003
DGENRE=
TTITLE0=Exactly Like You
TTITLE1=Word of Honor
TTITLE2=I Want A Little Girl
TTITLE3=I'll String Along With You
TTITLE4=I Need You So
TTITLE5=A Mothers Love
TTITLE6=For Sentimental Reasons (I Love You)
TTITLE7=Neighborhood Affair
TTITLE8=Tomorrow Night
TTITLE9=There I've Said It Again
TTITLE10=Always On My Mind
TTITLE11=Cross My Heart
TTITLE12=What A Wonderful World
EXTD=
EXTT0=
EXTT1=
EXTT2=
EXTT3=
EXTT4=
EXTT5=
EXTT6=
EXTT7=
EXTT8=
EXTT9=
EXTT10=
EXTT11=
EXTT12=
PLAYORDER=
